<?xml version="1.0" encoding="utf-8"?>
<svg viewBox="17.811 28.9568 441.4 291.4" xmlns="http://www.w3.org/2000/svg">
  <g id="Page-1" transform="matrix(1, 0, 0, 1, -17.48899295164631, -90.04316845600547)">
    <g id="_x30_12---Card">
      <path id="Rectangle-path" class="st0" d="M88.3,119h335.4c29.3,0,53,23.7,53,53v185.4c0,29.3-23.7,53-53,53H88.3c-29.3,0-53-23.7-53-53V171.9C35.3,142.7,59,119,88.3,119z" style="fill: rgb(11, 33, 104);"/>
      <path id="Shape_2_" class="st1" d="M167.7,180.8v17.7h-53v-35.3H150C159.8,163.1,167.7,171,167.7,180.8z" style="fill: rgb(240, 196, 25);"/>
      <path id="Shape_3_" class="st1" d="M114.8,163.1v35.3H79.4v-17.7c0-9.7,7.9-17.6,17.7-17.7L114.8,163.1L114.8,163.1z" style="fill: rgb(240, 196, 25);"/>
      <path id="Shape_4_" class="st1" d="M114.8,198.4v35.3H97.1c-9.7,0-17.6-7.9-17.7-17.7v-17.7L114.8,198.4L114.8,198.4z" style="fill: rgb(240, 196, 25);"/>
      <path id="Shape_5_" class="st1" d="M167.7,198.4v17.7c0,9.7-7.9,17.6-17.7,17.7h-35.3v-35.3L167.7,198.4L167.7,198.4z" style="fill: rgb(240, 196, 25);"/>
      <g>
        <path id="Shape_6_" class="st2" d="M150.1,313.2h-53c-4.9,0-8.8-4-8.8-8.8s4-8.8,8.8-8.8h53c4.9,0,8.8,4,8.8,8.8S154.9,313.2,150.1,313.2z" style="fill: rgb(236, 240, 241);"/>
        <path id="Shape_7_" class="st2" d="M238.3,313.2h-53c-4.9,0-8.8-4-8.8-8.8s4-8.8,8.8-8.8h53c4.9,0,8.8,4,8.8,8.8S243.2,313.2,238.3,313.2z" style="fill: rgb(236, 240, 241);"/>
        <path id="Shape_8_" class="st2" d="M326.6,313.2h-53c-4.9,0-8.8-4-8.8-8.8s4-8.8,8.8-8.8h53c4.9,0,8.8,4,8.8,8.8S331.5,313.2,326.6,313.2z" style="fill: rgb(236, 240, 241);"/>
        <path id="Shape_9_" class="st2" d="M414.9,313.2h-53c-4.9,0-8.8-4-8.8-8.8s4-8.8,8.8-8.8h53c4.9,0,8.8,4,8.8,8.8S419.8,313.2,414.9,313.2z" style="fill: rgb(236, 240, 241);"/>
        <path id="Shape_10_" class="st2" d="M114.8,366.1H97.1c-4.9,0-8.8-4-8.8-8.8s4-8.8,8.8-8.8h17.7c4.9,0,8.8,4,8.8,8.8S119.6,366.1,114.8,366.1z" style="fill: rgb(236, 240, 241);"/>
        <path id="Shape_11_" class="st2" d="M176.6,366.1h-17.7c-4.9,0-8.8-4-8.8-8.8s4-8.8,8.8-8.8h17.7c4.9,0,8.8,4,8.8,8.8S181.4,366.1,176.6,366.1z" style="fill: rgb(236, 240, 241);"/>
      </g>
    </g>
  </g>
  <g id="Working" stroke="none" stroke-width="1" fill="none" fill-rule="evenodd" transform="matrix(0.17373701930046084, 0, 0, 0.13808199763298035, 270.9504740081798, 230.18973121329748)" style="">
    <g id="GoPro-EMEA_APAC-Flags" transform="translate(-8420.000000, -4900.000000)">
      <g id="ua-ukraine-flag" transform="translate(8420.000000, 4900.000000)">
        <mask id="mask-2" fill="white">
          <rect x="0" y="0" width="840" height="600" rx="60"/>
        </mask>
        <g id="CC-BG-Copy-14"/>
        <g mask="url(#mask-2)">
          <g transform="translate(-30.000000, 0.000000)">
            <g transform="matrix(1, 0, 0, 1, 6.105816, -96.031923)">
              <polygon id="Fill-1" fill="#275495" points="0 600 900 600 900 0 0 0"/>
            </g>
            <polygon id="Fill-2" fill="#FAD120" points="0 600 900 600 900 300 0 300"/>
          </g>
        </g>
      </g>
    </g>
  </g>
</svg>