<svg width="60" height="60" viewBox="0 0 60 60" fill="none" xmlns="http://www.w3.org/2000/svg">
<path fill-rule="evenodd" clip-rule="evenodd" d="M30 0C46.6 0 60 13.4 60 30C60 46.6 46.6 60 30 60C13.4 60 0 46.6 0 30C0 13.4 13.4 0 30 0Z" fill="#F01010"/>
<path fill-rule="evenodd" clip-rule="evenodd" d="M28.7 20.3H26.2C25.8 20.3 25.3 20.3 24.8 20.2C24.7 20.2 24.6 20.4 24.6 20.6C24.6 20.8 24.6 20.9 24.7 21.1H25.3C26 21.2 26.5 21.4 26.8 21.5C27.1 21.7 27.4 22 27.4 22.4C27.5 22.8 27.5 23.4 27.5 24.1C27.5 25.1 27.4 26.2 27.4 27.6C27.4 28.9 27.3 30.3 27.2 31.8C27.1 34 26.9 39.4 26.3 41C26.2 41.4 25.9 41.6 25.7 41.7C25.4 41.8 25 42 24.5 42L23.8 42.1C23.7 42.2 23.6 42.3 23.7 42.6C23.7 42.7 23.7 42.9 23.9 43C24.5 43 25.1 42.9 25.7 42.9H29.4C30.1 42.9 30.7 43 31.3 43C31.4 42.9 31.5 42.8 31.5 42.6C31.5 42.4 31.5 42.3 31.3 42.1L29.7 42C29.3 42 29 41.9 28.7 41.7C28.6 41.6 28.5 41.5 28.4 41.3C28.1 40.6 28.1 39.5 28.1 38.8C28.1 37.4 28.1 35.9 28.2 34.5C28.2 33.1 28.3 31.8 28.3 30.8C28.3 29.8 28.4 28.8 28.5 27.8C28.5 26.8 28.6 25.8 28.6 24.8H28.7C29.1 25.6 29.4 26.4 29.8 27.2C30.2 28 30.5 28.9 30.9 29.7L34 36.3C34.3 36.9 34.6 37.5 35 38.4C35.4 39.3 35.8 40.1 36.2 40.9C36.4 41.3 36.6 41.8 36.7 42.1C36.7 42.1 37 43 37 43.1C37.2 43.3 37.5 43.3 37.6 43.1C37.9 42.4 38.2 41.7 38.5 41C39.4 39 40.3 37.2 41.3 35.3L44.3 29.3C44.5 28.8 44.8 28.2 45.1 27.6C45.4 27 45.7 26.4 46 25.8C46.2 25.2 46.4 24.9 46.5 24.7L46.6 39C46.6 39.7 46.6 40.3 46.6 40.7C46.6 41 46.5 41.3 46.2 41.5C46 41.7 45.6 41.8 45 41.9L44 42C43.9 42.1 43.9 42.2 43.9 42.5C43.9 42.6 43.9 42.8 44.1 42.9C44.8 42.9 45.5 42.8 46.2 42.8H50.2C50.9 42.8 51.6 42.9 52.3 42.9C52.4 42.8 52.5 42.7 52.5 42.5C52.5 42.3 52.5 42.2 52.4 42H51.4C50.9 42 50.5 41.8 50.3 41.6C50.1 41.4 49.9 41.1 49.8 40.7C49.8 40.3 49.7 39.8 49.7 39.2C49.6 37.5 49.5 35.7 49.5 34C49.5 32.1 49.4 30.4 49.3 28.7V24.3C49.3 23.5 49.3 22.9 49.4 22.5C49.5 22.1 49.7 21.7 50 21.5C50.3 21.3 50.9 21.2 51.6 21.1H52.3C52.4 21 52.4 20.9 52.4 20.6C52.4 20.5 52.4 20.3 52.3 20.2C51.7 20.2 51.2 20.2 50.7 20.3H48.2C47.8 20.3 47.3 20.3 46.7 20.2C46.7 21 46.4 21.9 46 22.9C45.5 24 44.9 25.3 44.2 26.8L41 33.3C40.2 35.1 39.4 36.8 38.4 38.4H38.3C37.5 36.9 36.7 35.3 36 33.7L32.1 25.8C31.6 24.7 31.1 23.6 30.8 22.7C30.5 21.7 30.3 20.9 30.4 20.2C29.7 20.2 29.2 20.2 28.7 20.3ZM9.80002 37.8C9.80002 39 9.80002 39.9 9.70002 40.5C9.60002 41.7 8.80002 42.1 7.70002 42.2L7.00002 42.3C6.80002 42.5 6.80002 43 7.00002 43.2C8.50002 43.1 9.80002 43.1 11.2 43.1C12.8 43.1 14.2 43.2 15.8 43.2C15.9 43.1 15.9 43 16 42.8C16 42.6 16 42.4 15.9 42.3L15 42.2C14.2 42.2 13.7 42 13.4 41.8C13.4 41.8 13.4 41.8 13.3 41.8C13 41.6 12.8 41.2 12.7 40.6C12.6 40 12.6 39.1 12.6 37.9V34.6C11.6 34.6 10.6 34.6 9.80002 34.5V37.8ZM6.70002 20.6C6.70002 20.8 6.70002 20.9 6.90002 21.1L8.10002 21.2C8.60002 21.2 9.00002 21.4 9.20002 21.6C9.40002 21.8 9.60002 22.1 9.60002 22.6C9.60002 23.1 9.70002 23.9 9.70002 24.9V31.9C10.6 31.9 11.6 31.9 12.5 31.9V22.3C12.5 21.9 12.5 21.6 12.6 21.4C12.6 21.3 12.8 21.1 13.1 21.1C13.4 21.1 13.9 21.1 14.5 21.1C16.3 21.1 17.7 21.6 18.6 22.6C19.5 23.6 20 25 20 26.7C20 28.2 19.7 29.5 18.9 30.5C18.2 31.4 17.2 32.1 15.7 32.4C14.3 32.7 12.4 32.9 9.80002 32.8C7.50002 32.8 5.10002 32.6 2.40002 32.3C5.40002 32.9 7.60002 33.3 9.00002 33.5C11.3 33.8 13.6 33.7 15.7 33.4C16.8 33.3 17.8 33 18.7 32.6C19.5 32.2 20.4 31.7 21.3 31.1C21.8 30.7 22.3 30.1 22.7 29.3C23 28.5 23.2 27.7 23.3 26.6C23.3 25.4 23 24.4 22.5 23.5C22 22.6 21.4 21.9 20.6 21.4C19.8 20.9 18.8 20.5 17.7 20.3C16.6 20.1 15.3 20 13.9 20C12.5 20 11.2 20 10.1 20C9.00002 20 7.90002 20.1 7.00002 20.2C6.80002 20.3 6.70002 20.4 6.70002 20.6Z" fill="white"/>
</svg>
